<svg xmlns="http://www.w3.org/2000/svg" version="1.1" xmlns:xlink="http://www.w3.org/1999/xlink" xmlns:svgjs="http://svgjs.dev/svgjs" width="100%" height="100%" viewBox="0 0 1000 600"><rect width="1000" height="600" x="0" y="0" fill="#f7f7f7"/><g><rect width="333.3333333333333" height="333.3333333333333" rx="13.333333333333334" ry="13.333333333333334" y="117.79027306636323" fill="#006838" transform="matrix(1.3079685921487183,0,0,1.3079685921487183,0,-72.0607419379159)" x="95.56804656982422"/><path d="M127.95766976786392 356.7698085261228L108.1560060424219 356.7698085261228L108.1560060424219 212.1440868739041L127.95766976786392 212.1440868739041L127.95766976786392 356.7698085261228ZM205.11697979333428 359.4569486762636L205.11697979333428 359.4569486762636Q191.84122786109123 359.4569486762636 180.5808310414538 353.95470932121344Q169.35242398550847 348.4524699661633 162.60258384646443 338.5356432215962Q155.85274370742036 328.6508062407213 155.85274370742036 315.37505430847824L155.85274370742036 315.37505430847824Q155.85274370742036 303.02700552330765 160.23534133324517 294.901605545501Q164.61793895907 286.8081953313866 171.94359484457277 281.52988432218154Q179.23726096638342 276.25157331297646 187.55459952634288 272.4128016699183L187.55459952634288 272.4128016699183Q181.25261607898898 265.6629615308742 176.64609010731908 257.56955131675977Q172.03956413564924 249.47614110264539 172.03956413564924 241.38273088853094L172.03956413564924 241.38273088853094Q172.03956413564924 231.9457505993461 176.7740491620877 224.74805376861192Q181.47654442483403 217.55035693787775 189.6019444026406 213.48765694897446Q197.69535461675503 209.45694672376334 207.80411994347503 209.45694672376334L207.80411994347503 209.45694672376334Q223.76701202585883 209.45694672376334 234.22766475319247 216.974541191419Q244.68831748052617 224.52412542276687 244.68831748052617 237.09610255378257L244.68831748052617 237.09610255378257Q244.68831748052617 247.23685764419469 239.53796552608972 254.3065954201603Q234.35562380796108 261.408322959818 227.02996792245833 266.1108182225643Q219.73630180064768 270.8453032490028 213.2103900074487 274.460146546216L213.2103900074487 274.460146546216Q222.19951360494338 285.46462525631625 231.6364938941282 295.4774212919598Q241.10546394700515 305.4902173276033 250.9903009278801 315.37505430847824L250.9903009278801 315.37505430847824Q253.00565604048566 309.52092755281444 253.93335918755807 303.79475985191925Q254.8290725709383 298.06859215102406 254.8290725709383 292.21446539536026L254.8290725709383 292.21446539536026Q254.8290725709383 287.9278370606119 254.3812158792482 283.5452394347871Q253.93335918755807 279.1626418089623 253.45351273217577 274.460146546216L253.45351273217577 274.460146546216L274.37481818684313 274.460146546216Q274.37481818684313 289.5273252452195 272.2634937831611 302.32323072208027Q270.1201796157869 315.1511259626332 263.59426782258794 327.755092857341L263.59426782258794 327.755092857341Q266.0574796268836 330.8900896991719 272.039565437316 336.52028810899066Q277.9896614840563 342.1504865188094 284.7395016231003 347.7806849286281Q291.48934176214436 353.41088333844687 295.96790867904565 356.7698085261228L295.96790867904565 356.7698085261228L267.84890639364414 356.7698085261228L252.10994265710542 342.59834321049954Q244.01653244299098 349.12425500369847 231.86042223997325 354.3065967218271Q219.73630180064768 359.4569486762636 205.11697979333428 359.4569486762636ZM205.78876483086947 342.59834321049954L205.78876483086947 342.59834321049954Q215.0018167742092 342.59834321049954 224.1188994264725 340.1351314062038Q233.2359820787358 337.63992983821595 241.3293922928502 330.66616135332686L241.3293922928502 330.66616135332686Q229.62113878152263 320.10953933491675 218.39273172557733 307.953429131899Q207.13233490593984 295.8293086925734 197.02356957921984 283.8971268354008L197.02356957921984 283.8971268354008Q191.61729951524617 285.2406969104712 186.78684519773122 290.0711512279861Q181.9563908802163 294.901605545501 179.01333262053834 301.42751733870006Q176.1022641245525 307.953429131899 176.1022641245525 314.70326927094305L176.1022641245525 314.70326927094305Q176.1022641245525 319.88561098907167 179.90904600391858 326.41152278227065Q183.74781764697684 332.93743457546964 190.36969873125224 337.76788889298456Q197.02356957921984 342.59834321049954 205.78876483086947 342.59834321049954ZM203.54948137241882 264.09546310995876L203.54948137241882 264.09546310995876Q213.8821750449839 259.84082453890255 220.95191282094947 252.86705605401346Q228.05364036060718 245.89328756912437 228.05364036060718 238.91951908423522L228.05364036060718 238.91951908423522Q228.05364036060718 232.84146398272637 222.77532935140212 228.55483564797802Q217.46502857850487 224.30019707692182 210.49126009361578 224.30019707692182L210.49126009361578 224.30019707692182Q200.15856642105075 224.30019707692182 195.87193808630235 229.00269233966816Q191.61729951524617 233.7371773661066 191.61729951524617 239.8152324676155L191.61729951524617 239.8152324676155Q191.61729951524617 245.4454308774342 194.75229635707706 251.26756786940587Q197.9192829626001 257.12169462506967 203.54948137241882 264.09546310995876ZM369.09650847930493 356.7698085261228L348.8469880621727 356.7698085261228L348.8469880621727 229.67447737720335L301.59810708886437 229.67447737720335L301.59810708886437 212.1440868739041L416.3133996889211 212.1440868739041L416.3133996889211 229.67447737720335L369.09650847930493 229.67447737720335L369.09650847930493 356.7698085261228Z " fill="#f7f7f7" transform="matrix(1.3079685921487183,0,0,1.3079685921487183,0,-72.0607419379159)"/><path d="M591.2609257815582 359.45694082420323L591.2609257815582 359.45694082420323Q560.9238479967399 359.45694082420323 536.5792794039846 337.7340950029754Q512.2347108112292 316.01124918174753 512.2347108112292 284.5505759234175L512.2347108112292 284.5505759234175Q512.2347108112292 254.21349813859928 536.5792794039846 231.74158866836356Q560.9238479967399 209.4569451103798 591.2609257815582 209.4569451103798L591.2609257815582 209.4569451103798Q621.5980035663764 209.4569451103798 645.1935085101239 231.74158866836356Q668.9762793661233 254.21349813859928 668.9762793661233 284.5505759234175L668.9762793661233 284.5505759234175Q668.9762793661233 316.01124918174753 645.1935085101239 337.7340950029754Q621.5980035663764 359.45694082420323 591.2609257815582 359.45694082420323Z " fill="#006838" transform="matrix(1.3079685921487183,0,0,1.3079685921487183,0,-72.0607419379159)"/></g></svg>